<svg id="Layer_1" data-name="Layer 1" xmlns="http://www.w3.org/2000/svg" xmlns:xlink="http://www.w3.org/1999/xlink" viewBox="0 0 131.38 28"><defs><style>.cls-1{fill:#00a651;}.cls-2{fill:url(#linear-gradient);}.cls-3{fill:url(#linear-gradient-2);}.cls-4{fill:url(#linear-gradient-3);}.cls-5{fill:url(#linear-gradient-4);}.cls-6{fill:#231f20;opacity:0.5;isolation:isolate;}</style><linearGradient id="linear-gradient" x1="98.27" y1="16.03" x2="109.22" y2="16.03" gradientTransform="matrix(1, 0, 0, -1, 0, 30)" gradientUnits="userSpaceOnUse"><stop offset="0" stop-color="#00a651"/><stop offset="0.14" stop-color="#00a651"/><stop offset="1" stop-color="#00a651"/></linearGradient><linearGradient id="linear-gradient-2" x1="90.16" y1="15.08" x2="102.37" y2="17.9" gradientTransform="matrix(1, 0, 0, -1, 0, 30)" gradientUnits="userSpaceOnUse"><stop offset="0" stop-color="#005b30"/><stop offset="0.04" stop-color="#006936"/><stop offset="0.14" stop-color="#007f40"/><stop offset="0.25" stop-color="#009148"/><stop offset="0.38" stop-color="#009d4d"/><stop offset="0.56" stop-color="#00a450"/><stop offset="1" stop-color="#00a651"/></linearGradient><linearGradient id="linear-gradient-3" x1="121.97" y1="15.07" x2="134.18" y2="17.89" xlink:href="#linear-gradient-2"/><linearGradient id="linear-gradient-4" x1="298.82" y1="389.16" x2="311.03" y2="391.98" gradientTransform="matrix(-1, 0, 0, 1, 415.53, -376.15)" xlink:href="#linear-gradient-2"/></defs><title>CV-logo</title><g id="Layer_2" data-name="Layer 2"><g id="CV_logo.svg" data-name="CV logo.svg"><path class="cls-1" d="M88.6,0l4.19,27.93H86.41L82.23,0Z" transform="translate(0)"/><path class="cls-2" d="M109.22,0l-4.65,27.93h-6.3L102.92,0Z" transform="translate(0)"/><polygon class="cls-1" points="120.41 0 124.59 27.93 118.22 27.93 114.03 0 120.41 0"/><polygon class="cls-3" points="93.23 0 99.57 0 95.39 27.93 93.16 27.93 91.22 15.51 93.23 0"/><polygon class="cls-4" points="125.05 0 131.38 0 127.2 27.93 124.97 27.93 123.13 15.51 125.05 0"/><polygon class="cls-5" points="113.64 27.93 107.3 27.93 111.49 0 113.71 0 115.58 12.4 113.64 27.93"/><path class="cls-6" d="M79.89,7.51C80.07,4.09,78.52,1,75,.17A6.56,6.56,0,0,0,73.76,0l2,6.2a3.82,3.82,0,0,1,0,2.11A5.51,5.51,0,0,1,74,11.85l1.17,3.6A10.62,10.62,0,0,0,79.88,8ZM10.51,3.72a5.07,5.07,0,0,0-4.23,4L4.18,19.86a3.51,3.51,0,0,0,.09,1.79l2,6.27A6.46,6.46,0,0,1,5,27.75,6.54,6.54,0,0,1,.18,19.87L2.29,7.77A10.22,10.22,0,0,1,9.32,0ZM16.84,8h-4a3.57,3.57,0,0,0-.08-1.8l-2-6.2A6.56,6.56,0,0,1,12,.17,6.49,6.49,0,0,1,16.85,8ZM10.68,20.29h4a10.08,10.08,0,0,1-7,7.64L6.46,24.24a5,5,0,0,0,4.22-4ZM23,27.92H15.46L20.38,0h4L20.16,23.92h1.52Zm5,0H24.41l-1.29-4h5.52Zm9.12,0h-7.6L34.45,0H40l1.29,4H37.75l-1.4,8h1.52l1.3,4H35.64l-1.4,8h1.52Zm4.9,0h-3.6l-1.3-4h5.52ZM44,16H40.52l-1.29-4h5.52ZM46.15,4H42.63l-1.3-4h5.52Zm8.39,17.91H50l-2.34,6h-4.1L53.77,1.8l.36,9.53L51.52,18h2.84Zm5.75,6H56.21L55.13,0h4.08Zm17.53,0H73.34L69.49,16H68L65.89,28h-4l4.9-28h5.52L73.6,4H70.08l-1.4,8h4Z" transform="translate(0)"/></g></g></svg>