<svg height="60" viewBox="0 0 235 60" width="235" xmlns="http://www.w3.org/2000/svg"><linearGradient id="a" x1="50%" x2="50%" y1="-14.584%" y2="24.328%"><stop offset="0" stop-color="#77dedd" stop-opacity="0"/><stop offset="1" stop-color="#77dedd"/></linearGradient><g fill="none" fill-rule="evenodd"><path d="M0 20.804l5.263 2.618V41.51l24.575 12.229L54.414 41.51V23.422l5.263-2.618v23.942L29.838 59.593 0 44.746z" fill="url(#a)"/><path d="M29.838 29.838L0 14.92V0l29.838 14.92L59.677 0v14.92z" fill="#27ffa6"/><path d="M88.162 44.8h-1.13L75.436 21.581h5.545l6.616 13.202 6.616-13.202h5.553zm13.352.348h4.958V21.582h-4.958zm13.566-.032h-4.958V22.181l1.053-.469 13.794 12.42V21.55h4.992v22.967l-1.054.47-13.826-12.423zm30.117-23.534c3.05.027 6.028 1.285 8.194 3.412l.456.5-3.486 3.525c-2.148-2.14-5.402-3.127-8.189-1.78-3.194 1.545-4.898 5.75-3.134 9.184 1.774 3.453 6.832 5.16 10.424 2.173.146-.123.288-.25.426-.382l.477-.461 3.471 3.463-.395.47c-4.632 4.608-13.198 4.78-17.768-1.272-3.139-4.158-3.076-10.466.44-14.622 2.192-2.592 5.493-4.18 8.933-4.21h.151zm20.408.418h1.13l11.595 23.217h-5.544l-6.616-13.202-6.617 13.202H154zm18.602 23.148h-4.96V21.582c3.946 0 7.89-.01 11.836 0 3.25.027 6.393 2.176 7.532 5.291 1.313 3.593-.317 8.08-3.86 9.926l4.813 8.35h-5.75l-4.307-7.424h-5.304zm0-18.575v6.131c2.288.01 4.577.043 6.864.03 1.956-.034 3.573-2.278 2.827-4.192a3.132 3.132 0 0 0-2.827-1.969c-2.287-.013-4.576 0-6.864 0zm18.529 18.575h4.96V21.582h-4.96zm20.467-23.566c6.724.055 12.85 6.482 11.56 13.928-1.052 6.079-7.445 10.673-13.982 9.422-7.662-1.465-13.264-11.937-6.391-19.452 2.17-2.371 5.221-3.833 8.51-3.896.1-.002.202-.002.303-.002zm-.12 4.99c-4.172.035-8.073 4.422-6.345 9.172 1.235 3.39 5.501 5.462 9.133 3.86 4.166-1.838 5.876-8.534 1.026-11.888-1.107-.766-2.455-1.147-3.814-1.143z" fill="#77dedd"/></g></svg>